<?xml version="1.0" encoding="UTF-8"?>
<!DOCTYPE svg PUBLIC "-//W3C//DTD SVG 1.1//EN" "http://www.w3.org/Graphics/SVG/1.1/DTD/svg11.dtd">
<svg version="1.2" width="32.69mm" height="32.69mm" viewBox="0 0 3269 3269" preserveAspectRatio="xMidYMid" fill-rule="evenodd" stroke-width="28.222" stroke-linejoin="round" xmlns="http://www.w3.org/2000/svg" xmlns:ooo="http://xml.openoffice.org/svg/export" xmlns:xlink="http://www.w3.org/1999/xlink" xmlns:presentation="http://sun.com/xmlns/staroffice/presentation" xmlns:smil="http://www.w3.org/2001/SMIL20/" xmlns:anim="urn:oasis:names:tc:opendocument:xmlns:animation:1.0" xml:space="preserve">
 <defs class="ClipPathGroup">
  <clipPath id="presentation_clip_path" clipPathUnits="userSpaceOnUse">
   <rect x="0" y="0" width="3269" height="3269"/>
  </clipPath>
  <clipPath id="presentation_clip_path_shrink" clipPathUnits="userSpaceOnUse">
   <rect x="3" y="3" width="3263" height="3263"/>
  </clipPath>
 </defs>
 <defs class="TextShapeIndex">
  <g ooo:slide="id1" ooo:id-list="id3 id4 id5 id6 id7 id8"/>
 </defs>
 <defs class="EmbeddedBulletChars">
  <g id="bullet-char-template-57356" transform="scale(0.00048828125,-0.00048828125)">
   <path d="M 580,1141 L 1163,571 580,0 -4,571 580,1141 Z"/>
  </g>
  <g id="bullet-char-template-57354" transform="scale(0.00048828125,-0.00048828125)">
   <path d="M 8,1128 L 1137,1128 1137,0 8,0 8,1128 Z"/>
  </g>
  <g id="bullet-char-template-10146" transform="scale(0.00048828125,-0.00048828125)">
   <path d="M 174,0 L 602,739 174,1481 1456,739 174,0 Z M 1358,739 L 309,1346 659,739 1358,739 Z"/>
  </g>
  <g id="bullet-char-template-10132" transform="scale(0.00048828125,-0.00048828125)">
   <path d="M 2015,739 L 1276,0 717,0 1260,543 174,543 174,936 1260,936 717,1481 1274,1481 2015,739 Z"/>
  </g>
  <g id="bullet-char-template-10007" transform="scale(0.00048828125,-0.00048828125)">
   <path d="M 0,-2 C -7,14 -16,27 -25,37 L 356,567 C 262,823 215,952 215,954 215,979 228,992 255,992 264,992 276,990 289,987 310,991 331,999 354,1012 L 381,999 492,748 772,1049 836,1024 860,1049 C 881,1039 901,1025 922,1006 886,937 835,863 770,784 769,783 710,716 594,584 L 774,223 C 774,196 753,168 711,139 L 727,119 C 717,90 699,76 672,76 641,76 570,178 457,381 L 164,-76 C 142,-110 111,-127 72,-127 30,-127 9,-110 8,-76 1,-67 -2,-52 -2,-32 -2,-23 -1,-13 0,-2 Z"/>
  </g>
  <g id="bullet-char-template-10004" transform="scale(0.00048828125,-0.00048828125)">
   <path d="M 285,-33 C 182,-33 111,30 74,156 52,228 41,333 41,471 41,549 55,616 82,672 116,743 169,778 240,778 293,778 328,747 346,684 L 369,508 C 377,444 397,411 428,410 L 1163,1116 C 1174,1127 1196,1133 1229,1133 1271,1133 1292,1118 1292,1087 L 1292,965 C 1292,929 1282,901 1262,881 L 442,47 C 390,-6 338,-33 285,-33 Z"/>
  </g>
  <g id="bullet-char-template-9679" transform="scale(0.00048828125,-0.00048828125)">
   <path d="M 813,0 C 632,0 489,54 383,161 276,268 223,411 223,592 223,773 276,916 383,1023 489,1130 632,1184 813,1184 992,1184 1136,1130 1245,1023 1353,916 1407,772 1407,592 1407,412 1353,268 1245,161 1136,54 992,0 813,0 Z"/>
  </g>
  <g id="bullet-char-template-8226" transform="scale(0.00048828125,-0.00048828125)">
   <path d="M 346,457 C 273,457 209,483 155,535 101,586 74,649 74,723 74,796 101,859 155,911 209,963 273,989 346,989 419,989 480,963 531,910 582,859 608,796 608,723 608,648 583,586 532,535 482,483 420,457 346,457 Z"/>
  </g>
  <g id="bullet-char-template-8211" transform="scale(0.00048828125,-0.00048828125)">
   <path d="M -4,459 L 1135,459 1135,606 -4,606 -4,459 Z"/>
  </g>
  <g id="bullet-char-template-61548" transform="scale(0.00048828125,-0.00048828125)">
   <path d="M 173,740 C 173,903 231,1043 346,1159 462,1274 601,1332 765,1332 928,1332 1067,1274 1183,1159 1299,1043 1357,903 1357,740 1357,577 1299,437 1183,322 1067,206 928,148 765,148 601,148 462,206 346,322 231,437 173,577 173,740 Z"/>
  </g>
 </defs>
 <g>
  <g id="id2" class="Master_Slide">
   <g id="bg-id2" class="Background"/>
   <g id="bo-id2" class="BackgroundObjects"/>
  </g>
 </g>
 <g class="SlideGroup">
  <g>
   <g id="container-id1">
    <g id="id1" class="Slide" clip-path="url(#presentation_clip_path)">
     <g class="Page">
      <g class="com.sun.star.drawing.CustomShape">
       <g id="id3">
        <rect class="BoundingBox" stroke="none" fill="none" x="1232" y="132" width="404" height="3004"/>
        <path fill="rgb(0,0,0)" stroke="none" d="M 1634,1634 C 1634,1897 1625,2156 1607,2384 1590,2612 1564,2801 1534,2933 1503,3065 1469,3134 1434,3134 1398,3134 1364,3065 1333,2933 1303,2801 1277,2612 1260,2384 1242,2156 1233,1897 1233,1634 1233,1370 1242,1111 1260,883 1277,655 1303,466 1333,334 1364,202 1398,133 1433,133 1469,133 1503,202 1534,334 1564,466 1590,655 1607,883 1625,1111 1634,1370 1634,1633 L 1634,1634 Z"/>
        <path fill="none" stroke="rgb(52,101,164)" d="M 1634,1634 C 1634,1897 1625,2156 1607,2384 1590,2612 1564,2801 1534,2933 1503,3065 1469,3134 1434,3134 1398,3134 1364,3065 1333,2933 1303,2801 1277,2612 1260,2384 1242,2156 1233,1897 1233,1634 1233,1370 1242,1111 1260,883 1277,655 1303,466 1333,334 1364,202 1398,133 1433,133 1469,133 1503,202 1534,334 1564,466 1590,655 1607,883 1625,1111 1634,1370 1634,1633 L 1634,1634 Z"/>
       </g>
      </g>
      <g class="com.sun.star.drawing.CustomShape">
       <g id="id4">
        <rect class="BoundingBox" stroke="none" fill="none" x="1383" y="2975" width="104" height="104"/>
        <path fill="rgb(201,33,30)" stroke="none" d="M 1485,3027 C 1485,3035 1483,3044 1478,3052 1474,3059 1467,3066 1460,3070 1452,3075 1443,3077 1435,3077 1426,3077 1417,3075 1409,3070 1402,3066 1395,3059 1391,3052 1386,3044 1384,3035 1384,3027 1384,3018 1386,3009 1391,3001 1395,2994 1402,2987 1409,2983 1417,2978 1426,2976 1435,2976 1443,2976 1452,2978 1460,2983 1467,2987 1474,2994 1478,3001 1483,3009 1485,3018 1485,3027 L 1485,3027 Z"/>
        <path fill="none" stroke="rgb(201,33,30)" d="M 1485,3027 C 1485,3035 1483,3044 1478,3052 1474,3059 1467,3066 1460,3070 1452,3075 1443,3077 1435,3077 1426,3077 1417,3075 1409,3070 1402,3066 1395,3059 1391,3052 1386,3044 1384,3035 1384,3027 1384,3018 1386,3009 1391,3001 1395,2994 1402,2987 1409,2983 1417,2978 1426,2976 1435,2976 1443,2976 1452,2978 1460,2983 1467,2987 1474,2994 1478,3001 1483,3009 1485,3018 1485,3027 Z"/>
       </g>
      </g>
      <g class="com.sun.star.drawing.CustomShape">
       <g id="id5">
        <rect class="BoundingBox" stroke="none" fill="none" x="1373" y="1632" width="104" height="104"/>
        <path fill="rgb(201,33,30)" stroke="none" d="M 1475,1684 C 1475,1692 1473,1701 1468,1709 1464,1716 1457,1723 1450,1727 1442,1732 1433,1734 1425,1734 1416,1734 1407,1732 1399,1727 1392,1723 1385,1716 1381,1709 1376,1701 1374,1692 1374,1684 1374,1675 1376,1666 1381,1658 1385,1651 1392,1644 1399,1640 1407,1635 1416,1633 1425,1633 1433,1633 1442,1635 1450,1640 1457,1644 1464,1651 1468,1658 1473,1666 1475,1675 1475,1684 L 1475,1684 Z"/>
        <path fill="none" stroke="rgb(201,33,30)" d="M 1475,1684 C 1475,1692 1473,1701 1468,1709 1464,1716 1457,1723 1450,1727 1442,1732 1433,1734 1425,1734 1416,1734 1407,1732 1399,1727 1392,1723 1385,1716 1381,1709 1376,1701 1374,1692 1374,1684 1374,1675 1376,1666 1381,1658 1385,1651 1392,1644 1399,1640 1407,1635 1416,1633 1425,1633 1433,1633 1442,1635 1450,1640 1457,1644 1464,1651 1468,1658 1473,1666 1475,1675 1475,1684 Z"/>
       </g>
      </g>
      <g class="com.sun.star.drawing.CustomShape">
       <g id="id6">
        <rect class="BoundingBox" stroke="none" fill="none" x="1424" y="1186" width="985" height="511"/>
        <path fill="rgb(42,96,153)" stroke="none" d="M 1939,1486 C 1853,1530 1767,1571 1690,1605 1614,1639 1549,1665 1502,1680 1456,1695 1429,1698 1425,1691 1421,1683 1440,1663 1480,1635 1519,1606 1578,1569 1651,1527 1723,1485 1807,1440 1893,1396 1979,1352 2065,1311 2141,1277 2218,1243 2283,1217 2329,1202 2376,1187 2402,1183 2406,1191 2410,1199 2392,1218 2352,1247 2312,1276 2253,1313 2181,1355 2108,1397 2025,1442 1939,1486 L 1939,1486 Z"/>
        <path fill="none" stroke="rgb(201,33,30)" d="M 1939,1486 C 1853,1530 1767,1571 1690,1605 1614,1639 1549,1665 1502,1680 1456,1695 1429,1698 1425,1691 1421,1683 1440,1663 1480,1635 1519,1606 1578,1569 1651,1527 1723,1485 1807,1440 1893,1396 1979,1352 2065,1311 2141,1277 2218,1243 2283,1217 2329,1202 2376,1187 2402,1183 2406,1191 2410,1199 2392,1218 2352,1247 2312,1276 2253,1313 2181,1355 2108,1397 2025,1442 1939,1486 L 1939,1486 Z"/>
       </g>
      </g>
      <g class="com.sun.star.drawing.CustomShape">
       <g id="id7">
        <rect class="BoundingBox" stroke="none" fill="none" x="1428" y="2485" width="985" height="511"/>
        <path fill="rgb(42,96,153)" stroke="none" d="M 1943,2785 C 1857,2829 1771,2870 1694,2904 1618,2938 1553,2964 1506,2979 1460,2994 1433,2997 1429,2990 1425,2982 1444,2962 1484,2934 1523,2905 1582,2868 1655,2826 1727,2784 1811,2739 1897,2695 1983,2651 2069,2610 2145,2576 2222,2542 2287,2516 2333,2501 2380,2486 2406,2482 2410,2490 2414,2498 2396,2517 2356,2546 2316,2575 2257,2612 2185,2654 2112,2696 2029,2741 1943,2785 L 1943,2785 Z"/>
        <path fill="none" stroke="rgb(201,33,30)" d="M 1943,2785 C 1857,2829 1771,2870 1694,2904 1618,2938 1553,2964 1506,2979 1460,2994 1433,2997 1429,2990 1425,2982 1444,2962 1484,2934 1523,2905 1582,2868 1655,2826 1727,2784 1811,2739 1897,2695 1983,2651 2069,2610 2145,2576 2222,2542 2287,2516 2333,2501 2380,2486 2406,2482 2410,2490 2414,2498 2396,2517 2356,2546 2316,2575 2257,2612 2185,2654 2112,2696 2029,2741 1943,2785 L 1943,2785 Z"/>
       </g>
      </g>
      <g class="com.sun.star.drawing.CustomShape">
       <g id="id8">
        <rect class="BoundingBox" stroke="none" fill="none" x="1333" y="431" width="203" height="181"/>
        <path fill="rgb(255,255,255)" stroke="none" d="M 1534,610 L 1334,610 1378,432 1478,432 1534,610 Z"/>
        <path fill="none" stroke="rgb(255,255,255)" d="M 1534,610 L 1334,610 1378,432 1478,432 1534,610 Z"/>
       </g>
      </g>
     </g>
    </g>
   </g>
  </g>
 </g>
</svg>