<?xml version="1.0" encoding="UTF-8"?>
<svg version="1.2" width="32.69mm" height="32.69mm" viewBox="0 0 3269 3269" preserveAspectRatio="xMidYMid" fill-rule="evenodd" stroke-width="28.222" stroke-linejoin="round" xmlns="http://www.w3.org/2000/svg" xmlns:ooo="http://xml.openoffice.org/svg/export" xmlns:xlink="http://www.w3.org/1999/xlink" xmlns:presentation="http://sun.com/xmlns/staroffice/presentation" xmlns:smil="https://www.w3.org/2001/SMIL20/" xmlns:anim="urn:oasis:names:tc:opendocument:xmlns:animation:1.0" xml:space="preserve">
 <defs class="ClipPathGroup">
  <clipPath id="presentation_clip_path" clipPathUnits="userSpaceOnUse">
   <rect x="0" y="0" width="3269" height="3269"/>
  </clipPath>
  <clipPath id="presentation_clip_path_shrink" clipPathUnits="userSpaceOnUse">
   <rect x="3" y="3" width="3263" height="3263"/>
  </clipPath>
 </defs>
 <defs class="EmbeddedBulletChars">
  <g id="bullet-char-template-57356" transform="scale(0.00048828125,-0.00048828125)">
   <path d="M 580,1141 L 1163,571 580,0 -4,571 580,1141 Z"/>
  </g>
  <g id="bullet-char-template-57354" transform="scale(0.00048828125,-0.00048828125)">
   <path d="M 8,1128 L 1137,1128 1137,0 8,0 8,1128 Z"/>
  </g>
  <g id="bullet-char-template-10146" transform="scale(0.00048828125,-0.00048828125)">
   <path d="M 174,0 L 602,739 174,1481 1456,739 174,0 Z M 1358,739 L 309,1346 659,739 1358,739 Z"/>
  </g>
  <g id="bullet-char-template-10132" transform="scale(0.00048828125,-0.00048828125)">
   <path d="M 2015,739 L 1276,0 717,0 1260,543 174,543 174,936 1260,936 717,1481 1274,1481 2015,739 Z"/>
  </g>
  <g id="bullet-char-template-10007" transform="scale(0.00048828125,-0.00048828125)">
   <path d="M 0,-2 C -7,14 -16,27 -25,37 L 356,567 C 262,823 215,952 215,954 215,979 228,992 255,992 264,992 276,990 289,987 310,991 331,999 354,1012 L 381,999 492,748 772,1049 836,1024 860,1049 C 881,1039 901,1025 922,1006 886,937 835,863 770,784 769,783 710,716 594,584 L 774,223 C 774,196 753,168 711,139 L 727,119 C 717,90 699,76 672,76 641,76 570,178 457,381 L 164,-76 C 142,-110 111,-127 72,-127 30,-127 9,-110 8,-76 1,-67 -2,-52 -2,-32 -2,-23 -1,-13 0,-2 Z"/>
  </g>
  <g id="bullet-char-template-10004" transform="scale(0.00048828125,-0.00048828125)">
   <path d="M 285,-33 C 182,-33 111,30 74,156 52,228 41,333 41,471 41,549 55,616 82,672 116,743 169,778 240,778 293,778 328,747 346,684 L 369,508 C 377,444 397,411 428,410 L 1163,1116 C 1174,1127 1196,1133 1229,1133 1271,1133 1292,1118 1292,1087 L 1292,965 C 1292,929 1282,901 1262,881 L 442,47 C 390,-6 338,-33 285,-33 Z"/>
  </g>
  <g id="bullet-char-template-9679" transform="scale(0.00048828125,-0.00048828125)">
   <path d="M 813,0 C 632,0 489,54 383,161 276,268 223,411 223,592 223,773 276,916 383,1023 489,1130 632,1184 813,1184 992,1184 1136,1130 1245,1023 1353,916 1407,772 1407,592 1407,412 1353,268 1245,161 1136,54 992,0 813,0 Z"/>
  </g>
  <g id="bullet-char-template-8226" transform="scale(0.00048828125,-0.00048828125)">
   <path d="M 346,457 C 273,457 209,483 155,535 101,586 74,649 74,723 74,796 101,859 155,911 209,963 273,989 346,989 419,989 480,963 531,910 582,859 608,796 608,723 608,648 583,586 532,535 482,483 420,457 346,457 Z"/>
  </g>
  <g id="bullet-char-template-8211" transform="scale(0.00048828125,-0.00048828125)">
   <path d="M -4,459 L 1135,459 1135,606 -4,606 -4,459 Z"/>
  </g>
  <g id="bullet-char-template-61548" transform="scale(0.00048828125,-0.00048828125)">
   <path d="M 173,740 C 173,903 231,1043 346,1159 462,1274 601,1332 765,1332 928,1332 1067,1274 1183,1159 1299,1043 1357,903 1357,740 1357,577 1299,437 1183,322 1067,206 928,148 765,148 601,148 462,206 346,322 231,437 173,577 173,740 Z"/>
  </g>
 </defs>
 <g>
  <g id="id2" class="Master_Slide">
   <g id="bg-id2" class="Background"/>
   <g id="bo-id2" class="BackgroundObjects"/>
  </g>
 </g>
 <g class="SlideGroup">
  <g>
   <g id="container-id1">
    <g id="id1" class="Slide" clip-path="url(#presentation_clip_path)">
     <g class="Page">
      <g class="com.sun.star.drawing.CustomShape">
       <g id="id3">
        <rect class="BoundingBox" stroke="none" fill="none" x="1432" y="132" width="404" height="3004"/>
        <path fill="rgb(0,0,0)" stroke="none" d="M 1834,1634 C 1834,1897 1825,2156 1807,2384 1790,2612 1764,2801 1734,2933 1703,3065 1669,3134 1633,3134 1598,3134 1564,3065 1533,2933 1503,2801 1477,2612 1460,2384 1442,2156 1433,1897 1433,1634 1433,1370 1442,1111 1460,883 1477,655 1503,466 1533,334 1564,202 1598,133 1633,133 1669,133 1703,202 1734,334 1764,466 1790,655 1807,883 1825,1111 1834,1370 1834,1633 L 1834,1634 Z"/>
        <path fill="none" stroke="rgb(52,101,164)" d="M 1834,1634 C 1834,1897 1825,2156 1807,2384 1790,2612 1764,2801 1734,2933 1703,3065 1669,3134 1633,3134 1598,3134 1564,3065 1533,2933 1503,2801 1477,2612 1460,2384 1442,2156 1433,1897 1433,1634 1433,1370 1442,1111 1460,883 1477,655 1503,466 1533,334 1564,202 1598,133 1633,133 1669,133 1703,202 1734,334 1764,466 1790,655 1807,883 1825,1111 1834,1370 1834,1633 L 1834,1634 Z"/>
       </g>
      </g>
      <g class="com.sun.star.drawing.CustomShape">
       <g id="id4">
        <rect class="BoundingBox" stroke="none" fill="none" x="1590" y="2952" width="71" height="75"/>
        <path fill="rgb(201,33,30)" stroke="none" d="M 1659,2989 C 1659,2995 1657,3002 1654,3007 1651,3012 1647,3017 1642,3020 1637,3023 1631,3025 1625,3025 1619,3025 1613,3023 1608,3020 1603,3017 1599,3012 1596,3007 1593,3002 1591,2995 1591,2989 1591,2983 1593,2976 1596,2971 1599,2966 1603,2961 1608,2958 1613,2955 1619,2953 1625,2953 1631,2953 1637,2955 1642,2958 1647,2961 1651,2966 1654,2971 1657,2976 1659,2983 1659,2989 L 1659,2989 Z"/>
        <path fill="none" stroke="rgb(201,33,30)" d="M 1659,2989 C 1659,2995 1657,3002 1654,3007 1651,3012 1647,3017 1642,3020 1637,3023 1631,3025 1625,3025 1619,3025 1613,3023 1608,3020 1603,3017 1599,3012 1596,3007 1593,3002 1591,2995 1591,2989 1591,2983 1593,2976 1596,2971 1599,2966 1603,2961 1608,2958 1613,2955 1619,2953 1625,2953 1631,2953 1637,2955 1642,2958 1647,2961 1651,2966 1654,2971 1657,2976 1659,2983 1659,2989 Z"/>
       </g>
      </g>
      <g class="com.sun.star.drawing.CustomShape">
       <g id="id5">
        <rect class="BoundingBox" stroke="none" fill="none" x="1573" y="1632" width="104" height="104"/>
        <path fill="rgb(201,33,30)" stroke="none" d="M 1675,1684 C 1675,1692 1673,1701 1668,1709 1664,1716 1657,1723 1650,1727 1642,1732 1633,1734 1625,1734 1616,1734 1607,1732 1599,1727 1592,1723 1585,1716 1581,1709 1576,1701 1574,1692 1574,1684 1574,1675 1576,1666 1581,1658 1585,1651 1592,1644 1599,1640 1607,1635 1616,1633 1625,1633 1633,1633 1642,1635 1650,1640 1657,1644 1664,1651 1668,1658 1673,1666 1675,1675 1675,1684 L 1675,1684 Z"/>
        <path fill="none" stroke="rgb(201,33,30)" d="M 1675,1684 C 1675,1692 1673,1701 1668,1709 1664,1716 1657,1723 1650,1727 1642,1732 1633,1734 1625,1734 1616,1734 1607,1732 1599,1727 1592,1723 1585,1716 1581,1709 1576,1701 1574,1692 1574,1684 1574,1675 1576,1666 1581,1658 1585,1651 1592,1644 1599,1640 1607,1635 1616,1633 1625,1633 1633,1633 1642,1635 1650,1640 1657,1644 1664,1651 1668,1658 1673,1666 1675,1675 1675,1684 Z"/>
       </g>
      </g>
      <g class="com.sun.star.drawing.CustomShape">
       <g id="id6">
        <rect class="BoundingBox" stroke="none" fill="none" x="1624" y="1186" width="985" height="511"/>
        <path fill="rgb(42,96,153)" stroke="none" d="M 2139,1486 C 2053,1530 1967,1571 1890,1605 1814,1639 1749,1665 1702,1680 1656,1695 1629,1698 1625,1691 1621,1683 1640,1663 1680,1635 1719,1606 1778,1569 1851,1527 1923,1485 2007,1440 2093,1396 2179,1352 2265,1311 2341,1277 2418,1243 2483,1217 2529,1202 2576,1187 2602,1183 2606,1191 2610,1199 2592,1218 2552,1247 2512,1276 2453,1313 2381,1355 2308,1397 2225,1442 2139,1486 L 2139,1486 Z"/>
        <path fill="none" stroke="rgb(201,33,30)" d="M 2139,1486 C 2053,1530 1967,1571 1890,1605 1814,1639 1749,1665 1702,1680 1656,1695 1629,1698 1625,1691 1621,1683 1640,1663 1680,1635 1719,1606 1778,1569 1851,1527 1923,1485 2007,1440 2093,1396 2179,1352 2265,1311 2341,1277 2418,1243 2483,1217 2529,1202 2576,1187 2602,1183 2606,1191 2610,1199 2592,1218 2552,1247 2512,1276 2453,1313 2381,1355 2308,1397 2225,1442 2139,1486 Z"/>
       </g>
      </g>
      <g class="com.sun.star.drawing.CustomShape">
       <g id="id7">
        <rect class="BoundingBox" stroke="none" fill="none" x="1628" y="2485" width="985" height="511"/>
        <path fill="rgb(42,96,153)" stroke="none" d="M 2143,2785 C 2057,2829 1971,2870 1894,2904 1818,2938 1753,2964 1706,2979 1660,2994 1633,2997 1629,2990 1625,2982 1644,2962 1684,2934 1723,2905 1782,2868 1855,2826 1927,2784 2011,2739 2097,2695 2183,2651 2269,2610 2345,2576 2422,2542 2487,2516 2533,2501 2580,2486 2606,2482 2610,2490 2614,2498 2596,2517 2556,2546 2516,2575 2457,2612 2385,2654 2312,2696 2229,2741 2143,2785 L 2143,2785 Z"/>
        <path fill="none" stroke="rgb(201,33,30)" d="M 2143,2785 C 2057,2829 1971,2870 1894,2904 1818,2938 1753,2964 1706,2979 1660,2994 1633,2997 1629,2990 1625,2982 1644,2962 1684,2934 1723,2905 1782,2868 1855,2826 1927,2784 2011,2739 2097,2695 2183,2651 2269,2610 2345,2576 2422,2542 2487,2516 2533,2501 2580,2486 2606,2482 2610,2490 2614,2498 2596,2517 2556,2546 2516,2575 2457,2612 2385,2654 2312,2696 2229,2741 2143,2785 L 2143,2785 Z"/>
       </g>
      </g>
      <g class="com.sun.star.drawing.CustomShape">
       <g id="id8">
        <rect class="BoundingBox" stroke="none" fill="none" x="1533" y="432" width="202" height="203"/>
        <path fill="rgb(255,255,255)" stroke="none" d="M 1733,633 L 1534,633 1578,433 1678,433 1733,633 Z"/>
        <path fill="none" stroke="rgb(255,255,255)" d="M 1733,633 L 1534,633 1578,433 1678,433 1733,633 Z"/>
       </g>
      </g>
     </g>
    </g>
   </g>
  </g>
 </g>
</svg>